<?xml version="1.0" standalone="no"?>
<!DOCTYPE svg PUBLIC "-//W3C//DTD SVG 20010904//EN"
 "http://www.w3.org/TR/2001/REC-SVG-20010904/DTD/svg10.dtd">
<svg version="1.0" xmlns="http://www.w3.org/2000/svg"
 width="979.000000pt" height="979.000000pt" viewBox="0 0 979.000000 979.000000"
 preserveAspectRatio="xMidYMid meet">
<metadata>
Created by potrace 1.14, written by Peter Selinger 2001-2017
</metadata>
<g transform="translate(0.000000,979.000000) scale(0.100000,-0.100000)"
fill="#000000" stroke="none">
<path d="M4755 9644 c-409 -325 -668 -525 -673 -520 -3 3 -6 146 -6 318 l-1
313 -1152 2 c-882 1 -1153 -1 -1154 -10 -1 -7 -2 -562 -3 -1234 l-1 -1221
-245 -192 c-135 -106 -257 -202 -271 -214 -14 -11 -40 -32 -59 -46 -141 -107
-180 -143 -181 -169 0 -36 0 -4741 0 -4766 1 -20 6 -20 344 -20 l342 0 3 2237
2 2236 258 203 c141 112 309 244 372 293 63 50 118 94 121 99 4 5 7 473 7
1040 0 568 1 1041 1 1053 l1 21 462 -1 463 -1 1 -685 c1 -377 2 -687 3 -688 0
-2 29 18 64 45 34 27 179 142 322 254 143 113 312 245 375 294 63 49 122 95
130 102 8 7 119 94 245 193 127 100 237 186 245 193 9 7 48 38 87 70 40 31 76
57 80 57 4 0 20 -10 35 -23 14 -12 61 -49 103 -81 42 -33 85 -67 95 -75 10 -9
42 -34 70 -56 29 -22 100 -78 158 -124 59 -46 121 -94 137 -107 33 -26 561
-441 610 -480 37 -29 238 -186 284 -222 19 -15 57 -45 85 -68 28 -22 177 -140
331 -260 279 -219 506 -398 535 -421 8 -7 179 -141 380 -299 201 -157 376
-296 390 -308 l25 -22 -1 -1879 c-1 -1034 -2 -1884 -3 -1890 -1 -7 -724 -9
-2154 -8 -1183 1 -2159 2 -2167 3 -13 0 -15 142 -15 1227 l0 1228 950 0 950 0
3 -837 2 -838 28 -1 c35 -1 587 -1 630 0 l32 1 0 1183 0 1182 -1637 -1 c-901
-1 -1640 -2 -1643 -3 -4 -1 -5 -3814 -1 -3831 0 -3 1287 -5 2859 -5 l2857 0 0
2406 0 2405 -298 235 c-164 129 -304 239 -310 244 -7 6 -41 33 -77 60 -36 28
-67 52 -70 55 -3 3 -205 163 -450 355 -245 192 -503 395 -575 451 -71 57 -515
405 -985 775 -470 370 -922 725 -1005 790 -82 66 -154 119 -160 118 -5 0 -86
-61 -180 -135z"/>
<path d="M929 856 c0 -28 -1 -229 -2 -447 l-2 -396 58 -1 c46 0 57 3 58 16 1
9 2 188 3 397 l1 380 152 0 c130 0 157 -3 187 -19 39 -21 58 -62 52 -111 -2
-16 -4 -35 -5 -42 0 -7 -14 -27 -30 -46 -30 -34 -91 -65 -171 -89 -42 -12 -45
-15 -46 -47 0 -38 20 -70 189 -306 l94 -130 76 -2 c90 -1 91 -11 -10 124 -137
186 -215 295 -211 297 1 2 23 10 47 20 96 37 174 113 187 182 18 89 -9 184
-62 221 -58 40 -99 46 -336 48 l-228 1 -1 -50z"/>
<path d="M1740 459 l0 -447 293 0 c160 0 294 4 297 9 3 4 4 26 2 49 l-4 40
-234 0 c-216 0 -234 1 -235 18 -1 20 -1 187 0 249 l1 42 215 -1 c119 0 217 1
219 3 5 5 9 47 7 74 -1 19 -8 20 -223 19 l-223 -1 2 126 c0 69 2 136 2 149 l1
22 230 0 c127 0 230 3 231 8 4 41 3 65 -3 75 -5 9 -80 12 -293 12 l-285 0 0
-446z"/>
<path d="M2791 896 c-11 -14 -371 -861 -371 -874 0 -4 26 -9 58 -10 54 -1 58
1 69 26 6 15 42 101 78 192 37 91 73 179 80 195 8 17 42 100 76 185 34 85 65
158 68 162 5 5 122 -267 157 -364 6 -16 -3 -18 -104 -18 -96 0 -110 -2 -115
-17 -3 -10 -10 -33 -15 -50 l-11 -33 117 1 c201 2 171 20 237 -141 l57 -140
64 2 c35 1 64 3 64 4 0 3 -119 283 -140 329 -9 22 -66 155 -125 295 -60 140
-110 257 -112 259 -8 10 -124 7 -132 -3z"/>
<path d="M3420 459 l0 -446 290 0 c238 0 290 2 291 13 1 8 1 25 1 39 0 14 0
30 -1 35 -1 6 -85 10 -231 10 -177 0 -230 3 -231 13 0 6 -1 185 -2 397 l-2
385 -57 0 -58 0 0 -446z"/>
<path d="M4449 845 c-1 -69 -1 -817 0 -826 1 -4 134 -7 296 -6 l295 0 0 48 0
49 -237 2 -238 3 0 150 0 150 210 2 c116 1 216 2 223 2 8 1 12 17 12 46 0 29
-4 45 -12 46 -7 0 -108 1 -223 1 l-210 1 0 146 1 146 232 3 232 2 0 48 0 47
-290 0 -290 0 -1 -60z"/>
<path d="M5375 896 c-72 -19 -97 -31 -133 -61 -47 -39 -72 -101 -72 -178 0
-114 38 -181 123 -218 43 -18 74 -23 172 -25 184 -4 225 -17 251 -81 42 -99
-14 -197 -126 -222 -60 -13 -212 -4 -305 18 -44 11 -82 18 -84 16 -3 -4 -4
-47 -2 -86 2 -35 277 -66 406 -45 152 25 229 98 240 231 12 141 -61 240 -194
261 -19 3 -86 7 -150 8 -125 3 -167 15 -196 60 -17 25 -22 98 -10 137 31 100
236 133 455 74 30 -8 58 -15 61 -15 9 0 10 83 1 96 -22 34 -340 56 -437 30z"/>
<path d="M5939 903 c-1 -4 -1 -47 0 -73 1 -19 8 -20 140 -20 l138 0 1 -372 c0
-205 1 -385 1 -399 1 -25 3 -26 59 -25 l57 1 0 395 0 395 140 5 140 5 -1 35
c-1 19 -2 40 -3 45 -1 7 -118 10 -336 10 -184 0 -335 -1 -336 -2z"/>
<path d="M6941 895 c-4 -5 -17 -32 -28 -60 -12 -27 -85 -201 -163 -385 -78
-184 -149 -351 -157 -370 -8 -19 -18 -42 -23 -51 -7 -14 0 -16 50 -17 34 0 63
4 68 11 6 7 44 98 87 202 42 105 83 204 90 220 7 17 37 89 65 160 81 202 66
201 144 8 38 -92 75 -180 82 -195 l12 -28 -112 0 -112 0 -15 -49 -15 -49 142
0 c78 0 147 -3 153 -6 6 -4 11 -15 11 -25 0 -9 4 -21 8 -27 5 -5 28 -57 51
-115 l43 -106 59 -1 c32 0 61 3 64 8 2 4 -2 20 -9 36 -8 16 -33 74 -56 129
-23 55 -48 114 -55 130 -8 17 -60 138 -115 270 -56 132 -109 257 -118 278 -9
20 -21 38 -26 38 -47 6 -119 3 -125 -6z"/>
<path d="M7409 905 c-1 0 -3 -21 -4 -47 l-3 -48 139 0 c104 0 139 -3 140 -12
0 -7 1 -187 1 -400 l1 -386 59 0 58 1 0 398 0 399 141 0 140 0 -3 47 -3 48
-332 0 c-183 0 -334 0 -334 0z"/>
<path d="M8221 900 c-4 -3 -7 -203 -7 -445 l1 -440 275 -2 c151 -1 284 0 296
2 16 4 21 13 23 50 l2 45 -240 0 -240 0 2 153 2 152 170 2 c94 1 193 2 221 2
l51 1 -1 39 c-1 22 -5 43 -9 47 -3 4 -102 7 -219 8 l-213 1 -3 148 -3 147 235
0 235 0 -1 45 c0 25 -5 46 -12 46 -38 4 -559 3 -565 -1z"/>
</g>
</svg>
